<?xml version="1.0" standalone="no"?>
<!DOCTYPE svg PUBLIC "-//W3C//DTD SVG 20010904//EN"
 "http://www.w3.org/TR/2001/REC-SVG-20010904/DTD/svg10.dtd">
<svg version="1.0" xmlns="http://www.w3.org/2000/svg"
 width="512.000000pt" height="512.000000pt" viewBox="0 0 512.000000 512.000000"
 preserveAspectRatio="xMidYMid meet">

<g transform="translate(0.000000,512.000000) scale(0.100000,-0.100000)"
fill="#000000" stroke="none">
<path d="M2341 5109 c-142 -13 -328 -46 -468 -85 -68 -18 -131 -37 -138 -41
-10 -6 4 -39 61 -138 40 -72 77 -145 80 -163 9 -46 -20 -117 -59 -146 -30 -22
-512 -302 -586 -341 -47 -24 -119 -16 -163 17 -20 15 -60 73 -102 147 -37 67
-73 124 -78 127 -14 9 -214 -192 -315 -316 -165 -204 -302 -439 -398 -684 -45
-115 -105 -319 -120 -403 l-7 -42 166 -3 c180 -3 192 -7 240 -72 20 -27 21
-39 21 -406 0 -367 -1 -379 -21 -406 -48 -65 -60 -69 -240 -72 -118 -2 -164
-7 -164 -15 0 -7 9 -50 21 -97 89 -375 259 -720 502 -1020 101 -124 301 -325
315 -316 5 3 41 60 78 127 42 74 82 132 102 147 43 33 116 41 163 17 70 -36
555 -319 586 -341 39 -29 68 -100 59 -146 -3 -19 -40 -91 -81 -162 -41 -71
-75 -130 -75 -131 0 -6 126 -44 225 -69 319 -78 665 -95 990 -47 184 27 471
102 463 120 -2 4 -36 65 -77 136 -64 110 -75 136 -75 175 0 89 12 100 351 296
341 196 356 202 433 162 40 -21 53 -37 120 -155 41 -73 80 -132 86 -133 20 0
286 281 362 382 197 263 343 558 427 865 20 71 38 145 41 165 l6 37 -163 3
c-153 3 -166 5 -197 26 -18 13 -41 41 -52 62 -19 37 -20 60 -20 392 0 348 1
354 23 393 13 22 40 49 62 62 37 21 53 23 194 23 l154 0 -6 38 c-4 20 -22 94
-42 165 -84 307 -230 602 -427 865 -76 101 -342 382 -362 382 -6 0 -42 -57
-81 -126 -44 -79 -82 -136 -103 -152 -43 -33 -116 -41 -163 -17 -74 39 -585
338 -601 352 -28 25 -51 98 -44 136 3 18 40 92 80 163 57 98 71 131 61 137 -7
4 -69 22 -137 41 -298 81 -613 111 -907 85z m-101 -779 l0 -120 -27 -6 c-166
-35 -374 -116 -507 -197 -42 -26 -80 -47 -84 -47 -4 0 -45 38 -91 84 l-83 83
79 50 c165 106 362 192 556 243 170 44 157 52 157 -90z m797 90 c201 -52 375
-128 556 -243 l79 -50 -83 -83 c-46 -46 -87 -84 -91 -84 -4 0 -44 23 -90 50
-134 81 -335 159 -500 194 l-28 6 0 120 c0 142 -14 134 157 90z m-197 -285
c185 -32 400 -115 565 -217 406 -253 676 -675 740 -1156 69 -525 -140 -1073
-539 -1411 -283 -240 -607 -368 -977 -388 -474 -25 -972 190 -1278 551 -146
172 -240 339 -310 553 -58 175 -75 286 -75 493 0 207 17 318 75 493 196 592
688 1004 1308 1092 120 18 360 13 491 -10z m-1680 -637 c0 -4 -21 -42 -47 -84
-81 -133 -162 -341 -197 -506 l-6 -28 -120 0 c-142 0 -134 -14 -90 154 51 199
134 389 241 557 l52 81 83 -83 c46 -46 84 -87 84 -91z m3018 95 c106 -167 192
-364 242 -559 44 -168 52 -154 -90 -154 l-120 0 -6 28 c-35 165 -116 373 -197
506 -26 42 -47 80 -47 84 0 5 161 172 166 172 1 0 24 -35 52 -77z m-3262
-1380 c35 -166 116 -374 197 -507 26 -42 47 -80 47 -84 0 -4 -38 -45 -84 -91
l-83 -83 -50 79 c-107 167 -193 364 -243 559 -44 168 -52 154 90 154 l120 0 6
-27z m3534 8 c0 -11 -14 -73 -30 -138 -49 -189 -126 -365 -237 -546 l-55 -89
-84 83 c-46 46 -84 87 -84 91 0 4 21 42 47 84 81 133 162 341 197 507 l6 27
120 0 c112 0 120 -1 120 -19z m-2746 -1106 c133 -81 344 -164 509 -199 l27 -6
0 -120 c0 -142 14 -134 -154 -90 -195 50 -392 136 -559 243 l-79 50 83 83 c46
46 87 84 91 84 4 0 41 -20 82 -45z m1885 -39 l83 -83 -81 -52 c-168 -107 -358
-190 -557 -241 -168 -44 -154 -52 -154 90 l0 120 28 6 c166 36 369 115 497
193 44 27 85 50 90 50 6 1 48 -37 94 -83z"/>
<path d="M2810 3464 c-67 -29 -113 -92 -126 -172 -8 -50 18 -142 56 -199 46
-68 333 -404 342 -401 20 7 342 397 364 441 45 88 41 174 -12 259 -44 69 -117
99 -194 78 -32 -9 -59 -27 -102 -73 l-58 -61 -53 51 c-52 52 -124 93 -162 92
-11 0 -36 -7 -55 -15z"/>
<path d="M1873 3295 c-184 -203 -227 -272 -228 -363 0 -72 26 -124 82 -164 76
-56 154 -47 243 29 l33 27 -8 -25 c-4 -13 -15 -45 -25 -71 l-18 -48 88 0 88 0
-19 63 c-10 34 -19 64 -19 66 0 3 15 -9 33 -26 91 -89 234 -56 298 69 36 71
17 162 -58 263 -45 60 -313 355 -323 355 -5 0 -80 -79 -167 -175z"/>
<path d="M3012 2429 c-48 -14 -109 -80 -123 -131 -10 -41 -8 -104 7 -141 5
-14 0 -17 -22 -17 -45 -1 -107 -34 -141 -75 -96 -116 -42 -276 107 -315 56
-15 113 -6 167 26 l43 25 -29 -81 -28 -80 88 0 87 0 -23 75 c-12 41 -21 75
-19 75 2 0 18 -9 36 -20 89 -54 227 -22 284 65 47 71 33 183 -28 242 -37 36
-94 63 -134 63 -24 0 -25 2 -18 28 17 53 9 136 -15 176 -47 75 -151 112 -239
85z"/>
<path d="M1840 2235 l-195 -195 198 -198 197 -197 197 197 198 198 -195 195
c-107 107 -197 195 -200 195 -3 0 -93 -88 -200 -195z"/>
</g>
</svg>
