<?xml version="1.0" encoding="UTF-8"?>
<svg xmlns="http://www.w3.org/2000/svg" xmlns:xlink="http://www.w3.org/1999/xlink" width="16px" height="16px" viewBox="0 0 16 16" version="1.1">
<g id="surface1">
<path style=" stroke:none;fill-rule:nonzero;fill:rgb(0%,0%,0%);fill-opacity:1;" d="M 7.316406 0.0351562 C 6.871094 0.0742188 6.289062 0.179688 5.851562 0.300781 C 5.640625 0.355469 5.445312 0.414062 5.421875 0.429688 C 5.390625 0.445312 5.433594 0.550781 5.613281 0.859375 C 5.738281 1.085938 5.851562 1.3125 5.863281 1.367188 C 5.890625 1.511719 5.800781 1.734375 5.679688 1.824219 C 5.585938 1.894531 4.078125 2.769531 3.847656 2.890625 C 3.699219 2.964844 3.476562 2.941406 3.335938 2.835938 C 3.273438 2.789062 3.148438 2.609375 3.019531 2.378906 C 2.902344 2.167969 2.789062 1.992188 2.773438 1.980469 C 2.730469 1.953125 2.105469 2.582031 1.789062 2.96875 C 1.273438 3.605469 0.847656 4.339844 0.546875 5.105469 C 0.40625 5.464844 0.21875 6.101562 0.171875 6.367188 L 0.148438 6.496094 L 0.667969 6.507812 C 1.230469 6.515625 1.269531 6.527344 1.417969 6.730469 C 1.480469 6.816406 1.484375 6.851562 1.484375 8 C 1.484375 9.148438 1.480469 9.183594 1.417969 9.269531 C 1.269531 9.472656 1.230469 9.484375 0.667969 9.492188 C 0.300781 9.5 0.15625 9.515625 0.15625 9.539062 C 0.15625 9.5625 0.183594 9.695312 0.222656 9.84375 C 0.5 11.015625 1.03125 12.09375 1.789062 13.03125 C 2.105469 13.417969 2.730469 14.046875 2.773438 14.019531 C 2.789062 14.007812 2.902344 13.832031 3.019531 13.621094 C 3.148438 13.390625 3.273438 13.210938 3.335938 13.164062 C 3.472656 13.058594 3.699219 13.035156 3.847656 13.109375 C 4.066406 13.222656 5.582031 14.105469 5.679688 14.175781 C 5.800781 14.265625 5.890625 14.488281 5.863281 14.632812 C 5.851562 14.691406 5.738281 14.914062 5.609375 15.136719 C 5.480469 15.359375 5.375 15.542969 5.375 15.546875 C 5.375 15.566406 5.769531 15.683594 6.078125 15.761719 C 7.074219 16.007812 8.15625 16.058594 9.171875 15.910156 C 9.746094 15.824219 10.644531 15.589844 10.617188 15.535156 C 10.613281 15.523438 10.507812 15.332031 10.378906 15.109375 C 10.179688 14.765625 10.144531 14.683594 10.144531 14.5625 C 10.144531 14.285156 10.179688 14.25 11.242188 13.636719 C 12.304688 13.023438 12.351562 13.007812 12.59375 13.132812 C 12.71875 13.195312 12.757812 13.246094 12.96875 13.617188 C 13.097656 13.84375 13.21875 14.027344 13.238281 14.03125 C 13.300781 14.03125 14.132812 13.152344 14.367188 12.835938 C 14.984375 12.015625 15.441406 11.09375 15.703125 10.132812 C 15.765625 9.914062 15.820312 9.679688 15.832031 9.617188 L 15.851562 9.503906 L 15.339844 9.492188 C 14.863281 9.484375 14.820312 9.476562 14.726562 9.414062 C 14.667969 9.371094 14.597656 9.285156 14.5625 9.21875 C 14.503906 9.101562 14.5 9.03125 14.5 7.992188 C 14.5 6.90625 14.503906 6.886719 14.570312 6.765625 C 14.613281 6.695312 14.695312 6.613281 14.765625 6.570312 C 14.882812 6.507812 14.929688 6.5 15.371094 6.5 L 15.851562 6.5 L 15.835938 6.382812 C 15.820312 6.320312 15.765625 6.085938 15.703125 5.867188 C 15.441406 4.90625 14.984375 3.984375 14.367188 3.164062 C 14.132812 2.847656 13.300781 1.96875 13.238281 1.96875 C 13.21875 1.96875 13.105469 2.148438 12.984375 2.363281 C 12.847656 2.609375 12.726562 2.789062 12.664062 2.835938 C 12.527344 2.941406 12.300781 2.964844 12.152344 2.890625 C 11.921875 2.769531 10.324219 1.835938 10.273438 1.789062 C 10.1875 1.710938 10.117188 1.484375 10.136719 1.367188 C 10.148438 1.308594 10.261719 1.078125 10.386719 0.855469 C 10.566406 0.550781 10.609375 0.445312 10.578125 0.429688 C 10.554688 0.414062 10.363281 0.359375 10.148438 0.300781 C 9.21875 0.046875 8.234375 -0.046875 7.316406 0.0351562 Z M 7 2.46875 L 7 2.84375 L 6.914062 2.863281 C 6.398438 2.972656 5.746094 3.226562 5.332031 3.476562 C 5.199219 3.558594 5.082031 3.625 5.070312 3.625 C 5.054688 3.625 4.929688 3.507812 4.785156 3.363281 L 4.523438 3.101562 L 4.773438 2.945312 C 5.289062 2.617188 5.902344 2.347656 6.507812 2.1875 C 7.039062 2.050781 7 2.023438 7 2.46875 Z M 9.492188 2.1875 C 10.117188 2.351562 10.664062 2.585938 11.226562 2.945312 L 11.476562 3.101562 L 11.214844 3.363281 C 11.070312 3.507812 10.945312 3.625 10.929688 3.625 C 10.917969 3.625 10.792969 3.554688 10.648438 3.46875 C 10.230469 3.214844 9.601562 2.972656 9.085938 2.863281 L 9 2.84375 L 9 2.46875 C 9 2.023438 8.957031 2.050781 9.492188 2.1875 Z M 8.875 3.078125 C 9.453125 3.179688 10.125 3.4375 10.640625 3.757812 C 11.910156 4.546875 12.753906 5.867188 12.953125 7.367188 C 13.167969 9.007812 12.515625 10.722656 11.269531 11.777344 C 10.382812 12.527344 9.371094 12.929688 8.214844 12.992188 C 6.734375 13.070312 5.179688 12.398438 4.222656 11.269531 C 3.765625 10.730469 3.472656 10.210938 3.253906 9.539062 C 3.070312 8.992188 3.019531 8.648438 3.019531 8 C 3.019531 7.351562 3.070312 7.007812 3.253906 6.460938 C 3.867188 4.609375 5.402344 3.320312 7.339844 3.046875 C 7.714844 2.992188 8.464844 3.007812 8.875 3.078125 Z M 3.625 5.070312 C 3.625 5.082031 3.558594 5.199219 3.476562 5.332031 C 3.226562 5.746094 2.972656 6.398438 2.863281 6.914062 L 2.84375 7 L 2.46875 7 C 2.023438 7 2.050781 7.042969 2.1875 6.519531 C 2.347656 5.898438 2.605469 5.304688 2.941406 4.777344 L 3.101562 4.523438 L 3.363281 4.785156 C 3.507812 4.929688 3.625 5.054688 3.625 5.070312 Z M 13.054688 4.773438 C 13.386719 5.292969 13.65625 5.910156 13.8125 6.519531 C 13.949219 7.042969 13.976562 7 13.53125 7 L 13.15625 7 L 13.136719 6.914062 C 13.027344 6.398438 12.773438 5.746094 12.523438 5.332031 C 12.441406 5.199219 12.375 5.082031 12.375 5.070312 C 12.375 5.054688 12.878906 4.53125 12.894531 4.53125 C 12.898438 4.53125 12.96875 4.640625 13.054688 4.773438 Z M 2.863281 9.085938 C 2.972656 9.601562 3.226562 10.253906 3.476562 10.667969 C 3.558594 10.800781 3.625 10.917969 3.625 10.929688 C 3.625 10.945312 3.507812 11.070312 3.363281 11.214844 L 3.101562 11.476562 L 2.945312 11.226562 C 2.613281 10.707031 2.34375 10.089844 2.1875 9.480469 C 2.050781 8.957031 2.023438 9 2.46875 9 L 2.84375 9 Z M 13.90625 9.058594 C 13.90625 9.09375 13.863281 9.289062 13.8125 9.492188 C 13.660156 10.082031 13.417969 10.632812 13.070312 11.195312 L 12.898438 11.476562 L 12.636719 11.214844 C 12.492188 11.070312 12.375 10.945312 12.375 10.929688 C 12.375 10.917969 12.441406 10.800781 12.523438 10.667969 C 12.773438 10.253906 13.027344 9.601562 13.136719 9.085938 L 13.15625 9 L 13.53125 9 C 13.882812 9 13.90625 9.003906 13.90625 9.058594 Z M 5.324219 12.515625 C 5.742188 12.769531 6.398438 13.027344 6.914062 13.136719 L 7 13.15625 L 7 13.53125 C 7 13.976562 7.042969 13.949219 6.519531 13.8125 C 5.910156 13.65625 5.292969 13.386719 4.773438 13.054688 L 4.523438 12.898438 L 4.785156 12.636719 C 4.929688 12.492188 5.054688 12.375 5.070312 12.375 C 5.082031 12.375 5.195312 12.4375 5.324219 12.515625 Z M 11.214844 12.636719 L 11.476562 12.898438 L 11.222656 13.058594 C 10.695312 13.394531 10.101562 13.652344 9.480469 13.8125 C 8.957031 13.949219 9 13.976562 9 13.53125 L 9 13.15625 L 9.085938 13.136719 C 9.605469 13.023438 10.242188 12.777344 10.640625 12.535156 C 10.777344 12.449219 10.90625 12.378906 10.921875 12.378906 C 10.941406 12.375 11.070312 12.492188 11.214844 12.636719 Z M 11.214844 12.636719 "/>
<path style=" stroke:none;fill-rule:nonzero;fill:rgb(0%,0%,0%);fill-opacity:1;" d="M 8.78125 5.175781 C 8.570312 5.265625 8.429688 5.460938 8.386719 5.710938 C 8.363281 5.867188 8.445312 6.15625 8.5625 6.335938 C 8.707031 6.546875 9.601562 7.597656 9.632812 7.585938 C 9.695312 7.566406 10.699219 6.347656 10.769531 6.210938 C 10.910156 5.933594 10.898438 5.664062 10.730469 5.398438 C 10.59375 5.183594 10.367188 5.089844 10.125 5.15625 C 10.023438 5.183594 9.941406 5.242188 9.804688 5.382812 L 9.625 5.574219 L 9.460938 5.414062 C 9.296875 5.253906 9.070312 5.125 8.953125 5.128906 C 8.917969 5.128906 8.839844 5.148438 8.78125 5.175781 Z M 8.78125 5.175781 "/>
<path style=" stroke:none;fill-rule:nonzero;fill:rgb(0%,0%,0%);fill-opacity:1;" d="M 5.851562 5.703125 C 5.277344 6.335938 5.144531 6.554688 5.140625 6.835938 C 5.140625 7.0625 5.222656 7.226562 5.398438 7.351562 C 5.632812 7.523438 5.878906 7.496094 6.15625 7.257812 L 6.257812 7.175781 L 6.234375 7.253906 C 6.222656 7.292969 6.1875 7.394531 6.15625 7.476562 L 6.101562 7.625 L 6.648438 7.625 L 6.589844 7.429688 C 6.558594 7.320312 6.53125 7.226562 6.53125 7.222656 C 6.53125 7.210938 6.578125 7.25 6.632812 7.304688 C 6.917969 7.582031 7.367188 7.476562 7.566406 7.085938 C 7.679688 6.867188 7.617188 6.582031 7.382812 6.265625 C 7.242188 6.078125 6.40625 5.15625 6.375 5.15625 C 6.359375 5.15625 6.125 5.402344 5.851562 5.703125 Z M 5.851562 5.703125 "/>
<path style=" stroke:none;fill-rule:nonzero;fill:rgb(0%,0%,0%);fill-opacity:1;" d="M 9.414062 8.410156 C 9.261719 8.453125 9.070312 8.660156 9.027344 8.820312 C 8.996094 8.945312 9.003906 9.144531 9.050781 9.257812 C 9.066406 9.304688 9.050781 9.3125 8.980469 9.3125 C 8.839844 9.316406 8.648438 9.417969 8.539062 9.546875 C 8.242188 9.910156 8.410156 10.410156 8.875 10.53125 C 9.050781 10.578125 9.226562 10.550781 9.398438 10.449219 L 9.53125 10.371094 L 9.441406 10.625 L 9.351562 10.875 L 9.898438 10.875 L 9.828125 10.640625 C 9.789062 10.511719 9.761719 10.40625 9.769531 10.40625 C 9.773438 10.40625 9.824219 10.433594 9.882812 10.46875 C 10.160156 10.636719 10.589844 10.539062 10.769531 10.265625 C 10.914062 10.042969 10.871094 9.695312 10.679688 9.507812 C 10.566406 9.398438 10.386719 9.3125 10.261719 9.3125 C 10.1875 9.3125 10.183594 9.304688 10.207031 9.226562 C 10.257812 9.058594 10.234375 8.800781 10.160156 8.675781 C 10.011719 8.441406 9.6875 8.324219 9.414062 8.410156 Z M 9.414062 8.410156 "/>
<path style=" stroke:none;fill-rule:nonzero;fill:rgb(0%,0%,0%);fill-opacity:1;" d="M 5.75 9.015625 L 5.140625 9.625 L 6.375 10.859375 L 7.609375 9.625 L 7 9.015625 C 6.664062 8.679688 6.382812 8.40625 6.375 8.40625 C 6.367188 8.40625 6.085938 8.679688 5.75 9.015625 Z M 5.75 9.015625 "/>
</g>
</svg>
